Coordinates
version=1
nRows=12
nColumns=34
inDegrees=no

Units are S.I. units (second, meters, Newtons, ...)
If the header above contains a line with 'inDegrees', this indicates whether rotational values are in degrees (yes) or radians (no).

endheader
time	pelvis_tilt	pelvis_list	pelvis_rotation	pelvis_tx	pelvis_ty	pelvis_tz	hip_flexion_r	hip_adduction_r	hip_rotation_r	knee_angle_r	ankle_angle_r	subtalar_angle_r	mtp_angle_r	hip_flexion_l	hip_adduction_l	hip_rotation_l	knee_angle_l	ankle_angle_l	subtalar_angle_l	mtp_angle_l	lumbar_extension	lumbar_bending	lumbar_rotation	arm_flex_r	arm_add_r	arm_rot_r	elbow_flex_r	pro_sup_r	arm_flex_l	arm_add_l	arm_rot_l	elbow_flex_l	pro_sup_l
8.87	-0.239785	0.0290334	0.00552279	-0.256423	0.934123	-0.597305	0.587138	-0.125371	-0.0673799	0.529098	0.332243	0.292442	-0.00241763	0.566333	-0.0854098	-0.0813683	0.486752	0.275608	0.299371	-0.00241763	-0.195548	-0.0221635	-0.0736576	0.120979	-0.202684	0.063373	2.03669	2.06587	0.0726784	-0.16937	-0.0947317	2.07438	2.05479
8.88	-0.255117	0.0283014	0.00770183	-0.26294	0.929689	-0.596867	0.622969	-0.126545	-0.0702053	0.551197	0.338202	0.291052	-0.00241763	0.60342	-0.0887894	-0.085165	0.510017	0.282159	0.305056	-0.00241763	-0.207088	-0.0205961	-0.0753785	0.139363	-0.200165	0.0604855	2.04583	2.06453	0.0888262	-0.172995	-0.0945796	2.08579	2.03915
8.89	-0.270239	0.0280263	0.00977292	-0.269646	0.924904	-0.596396	0.659052	-0.128157	-0.0722379	0.573738	0.345124	0.288187	-0.00241763	0.641371	-0.0928049	-0.0914772	0.535318	0.290455	0.313408	-0.00241763	-0.219017	-0.0195948	-0.077723	0.15854	-0.197393	0.0586467	2.05456	2.06124	0.104846	-0.178607	-0.0953336	2.09714	2.03177
8.9	-0.286335	0.0274567	0.011789	-0.27639	0.919756	-0.595984	0.696131	-0.129432	-0.0733185	0.595956	0.351956	0.282707	-0.00241763	0.680407	-0.0972871	-0.0969891	0.560808	0.300135	0.321702	-0.00241763	-0.229599	-0.0178467	-0.0798178	0.176738	-0.196083	0.0583817	2.06354	2.05141	0.120411	-0.181923	-0.096326	2.10752	2.02119
8.91	-0.303694	0.0262974	0.0140911	-0.283116	0.914251	-0.595661	0.734647	-0.130453	-0.0744315	0.618313	0.358117	0.275666	-0.00241763	0.720496	-0.101574	-0.0998018	0.585441	0.309864	0.326921	-0.00241763	-0.238396	-0.0150333	-0.0813837	0.194046	-0.195434	0.0572752	2.07221	2.04735	0.135857	-0.181309	-0.0988995	2.1145	2.02404
8.92	-0.321854	0.0251394	0.01699	-0.289879	0.90843	-0.595475	0.774818	-0.132421	-0.0765574	0.64204	0.363587	0.268716	-0.00241763	0.761639	-0.104772	-0.101889	0.609858	0.318318	0.327041	-0.00241763	-0.24618	-0.0116933	-0.0824395	0.211422	-0.193799	0.0538977	2.08118	2.04781	0.1516	-0.178245	-0.101737	2.11934	2.03328
8.93	-0.340375	0.0243556	0.020349	-0.296699	0.902364	-0.595391	0.816356	-0.135603	-0.0790581	0.667297	0.368288	0.261174	-0.00241763	0.80358	-0.106906	-0.104927	0.634579	0.325005	0.32303	-0.00241763	-0.253631	-0.00824949	-0.0831122	0.228936	-0.191567	0.0490118	2.09042	2.05012	0.167297	-0.174581	-0.10381	2.12398	2.0369
8.94	-0.358802	0.0236293	0.023477	-0.303581	0.896083	-0.59522	0.858533	-0.138434	-0.0799002	0.693337	0.371925	0.25068	-0.00241763	0.845829	-0.109368	-0.108397	0.659761	0.330573	0.319418	-0.00241763	-0.261333	-0.00515786	-0.0840146	0.246737	-0.189539	0.0447821	2.09889	2.05102	0.182337	-0.172645	-0.105817	2.12958	2.03713
8.95	-0.37667	0.0227993	0.0263311	-0.310526	0.889627	-0.594963	0.900467	-0.140374	-0.0785636	0.719458	0.374455	0.236665	-0.00241763	0.887798	-0.112177	-0.110801	0.685123	0.335085	0.316305	-0.00241763	-0.269884	-0.00251771	-0.0861361	0.26552	-0.18734	0.0418039	2.10556	2.05612	0.196601	-0.173593	-0.108527	2.13612	2.04243
8.96	-0.393564	0.0220954	0.0297847	-0.317447	0.88312	-0.594843	0.941002	-0.143026	-0.076882	0.745067	0.376839	0.221873	-0.00241763	0.928613	-0.113734	-0.11141	0.709891	0.33832	0.310608	-0.00241763	-0.279604	0.000282767	-0.0896575	0.285119	-0.18493	0.0401228	2.11152	2.05765	0.210271	-0.175492	-0.110729	2.14348	2.04299
8.97	-0.40952	0.0216088	0.0339512	-0.32423	0.876628	-0.594882	0.979785	-0.147085	-0.0759171	0.769899	0.379731	0.208222	-0.00241763	0.967954	-0.114025	-0.111328	0.733799	0.340761	0.302946	-0.00241763	-0.289991	0.00348363	-0.0935058	0.304409	-0.182544	0.0384165	2.11694	2.05896	0.22348	-0.175902	-0.112543	2.15045	2.03737
8.98	-0.424757	0.0213392	0.0379197	-0.330847	0.870094	-0.594896	1.01751	-0.151555	-0.0749189	0.794368	0.382629	0.195097	-0.00241763	1.00596	-0.114383	-0.111907	0.757106	0.3433	0.295423	-0.00241763	-0.300446	0.00648008	-0.096711	0.322693	-0.179878	0.036531	2.12207	2.05476	0.236319	-0.175145	-0.1145	2.1567	2.02936
